<?xml version="1.0" encoding="UTF-8" standalone="no"?>
<!-- Created with Inkscape (http://www.inkscape.org/) -->

<svg
   width="181.28572mm"
   height="181.28572mm"
   viewBox="0 0 181.28572 181.28572"
   version="1.1"
   id="svg5"
   sodipodi:docname="bell-curve.svg"
   inkscape:version="1.1.1 (3bf5ae0d25, 2021-09-20)"
   xmlns:inkscape="http://www.inkscape.org/namespaces/inkscape"
   xmlns:sodipodi="http://sodipodi.sourceforge.net/DTD/sodipodi-0.dtd"
   xmlns="http://www.w3.org/2000/svg"
   xmlns:svg="http://www.w3.org/2000/svg">
<sodipodi:namedview
   id="namedview7"
   pagecolor="#ffffff"
   bordercolor="#111111"
   borderopacity="1"
   inkscape:pageshadow="0"
   inkscape:pageopacity="0"
   inkscape:pagecheckerboard="1"
   inkscape:document-units="mm"
   showgrid="false"
   inkscape:zoom="1.1238015"
   inkscape:cx="342.58719"
   inkscape:cy="342.58719"
   inkscape:window-width="1920"
   inkscape:window-height="974"
   inkscape:window-x="-11"
   inkscape:window-y="-11"
   inkscape:window-maximized="1"
   inkscape:current-layer="layer1" />
   <defs
      id="defs2" />
   <g
      id="layer1"
      transform="translate(-16.585714,-47.828571)">
      <path
         style="fill:none;stroke:#000000;stroke-width:5;stroke-linecap:round;stroke-linejoin:miter;stroke-miterlimit:4;stroke-dasharray:none;stroke-opacity:1"
         d="M 26.614285,179.35714 H 187.45714"
         id="path1041" />
      <path
         style="fill:none;stroke:#000000;stroke-width:4.203;stroke-linecap:round;stroke-linejoin:miter;stroke-miterlimit:4;stroke-dasharray:none;stroke-opacity:1"
         d="m 27.576066,166.84397 c 14.776856,0.17187 29.448902,-7.15786 38.185714,-19.07646 6.567021,-8.95861 9.733869,-19.94594 15.433063,-29.48018 2.849597,-4.76712 6.390199,-9.21399 10.930365,-12.41283 4.540165,-3.19883 10.161942,-5.07038 15.679422,-4.43556 4.75198,0.54674 9.17986,2.91536 12.70649,6.14695 3.52663,3.23159 6.20809,7.29295 8.37018,11.55975 4.3242,8.5336 6.70382,18.01634 11.70905,26.16918 4.68654,7.63373 11.62503,13.86586 19.71623,17.70903 8.0912,3.84318 17.30573,5.28345 26.18377,4.09265"
         id="path1287" />
   </g>
</svg>
